<?xml version="1.0" standalone="no"?>
<!DOCTYPE svg PUBLIC "-//W3C//DTD SVG 20010904//EN"
 "http://www.w3.org/TR/2001/REC-SVG-20010904/DTD/svg10.dtd">
<svg version="1.0" xmlns="http://www.w3.org/2000/svg"
 width="466.000000pt" height="535.000000pt" viewBox="0 0 466.000000 535.000000"
 preserveAspectRatio="xMidYMid meet">

<g transform="translate(0.000000,535.000000) scale(0.100000,-0.100000)"
fill="#000000" stroke="none">
<path d="M2145 5202 c-93 -54 -305 -177 -470 -272 -509 -295 -826 -478 -1175
-680 -184 -106 -359 -207 -388 -224 l-52 -30 2 -1310 3 -1310 235 -137 c129
-74 429 -247 665 -384 237 -137 639 -369 894 -517 300 -173 468 -265 475 -259
10 7 280 164 986 571 102 59 347 201 545 315 198 115 405 234 460 265 55 32
134 77 175 102 l75 45 3 1309 2 1310 -87 50 c-88 51 -543 314 -1088 629 -159
92 -348 202 -420 243 -71 41 -246 142 -387 224 -141 81 -263 150 -270 153 -7
3 -89 -39 -183 -93z m518 -244 c183 -105 411 -237 507 -293 96 -56 270 -156
385 -223 116 -66 365 -210 555 -320 l345 -200 3 -712 c2 -562 0 -711 -10 -708
-7 3 -147 163 -312 357 l-299 353 23 91 c58 229 10 449 -129 588 -167 166
-411 182 -624 39 -41 -27 -93 -70 -116 -95 -23 -25 -43 -45 -45 -45 -2 0 -19
15 -39 34 -48 45 -119 63 -184 47 -125 -32 -214 -114 -269 -250 l-22 -54 -83
-31 c-154 -58 -296 -150 -406 -263 l-62 -63 -563 -206 c-310 -113 -580 -212
-602 -220 -21 -8 -67 -14 -101 -14 -98 0 -205 -66 -205 -126 0 -66 126 -216
214 -254 40 -18 71 -54 267 -308 122 -158 233 -299 247 -315 25 -26 29 -27
130 -27 57 0 180 5 274 11 152 10 175 9 214 -6 118 -45 347 -398 439 -679 l37
-113 -72 -296 c-40 -164 -76 -297 -79 -297 -7 0 -324 182 -1331 765 -179 103
-372 215 -430 248 -58 33 -113 67 -123 75 -16 14 -17 83 -15 1245 l3 1229 225
130 c124 72 324 188 445 258 121 70 398 230 615 355 217 126 494 286 615 356
121 71 226 128 233 129 8 0 163 -86 345 -192z"/>
</g>
</svg>
